<?xml version="1.0" encoding="UTF-8" standalone="no"?>
<svg
   xmlns:dc="http://purl.org/dc/elements/1.1/"
   xmlns:cc="http://creativecommons.org/ns#"
   xmlns:rdf="http://www.w3.org/1999/02/22-rdf-syntax-ns#"
   xmlns:svg="http://www.w3.org/2000/svg"
   xmlns="http://www.w3.org/2000/svg"
   xmlns:sodipodi="http://sodipodi.sourceforge.net/DTD/sodipodi-0.dtd"
   xmlns:inkscape="http://www.inkscape.org/namespaces/inkscape"
   width="362.88699"
   height="727.77399"
   viewBox="0 0 362.88699 727.77397"
   version="1.1"
   id="svg96"
   sodipodi:docname="mobile.svg"
   inkscape:version="1.0 (4035a4fb49, 2020-05-01)">
  <metadata
     id="metadata102">
    <rdf:RDF>
      <cc:Work
         rdf:about="">
        <dc:format>image/svg+xml</dc:format>
        <dc:type
           rdf:resource="http://purl.org/dc/dcmitype/StillImage" />
        <dc:title></dc:title>
      </cc:Work>
    </rdf:RDF>
  </metadata>
  <defs
     id="defs100" />
  <sodipodi:namedview
     inkscape:document-rotation="0"
     pagecolor="#ffffff"
     bordercolor="#666666"
     borderopacity="1"
     objecttolerance="10"
     gridtolerance="10"
     guidetolerance="10"
     inkscape:pageopacity="0"
     inkscape:pageshadow="2"
     inkscape:window-width="2560"
     inkscape:window-height="1377"
     id="namedview98"
     showgrid="false"
     inkscape:zoom="1.1532854"
     inkscape:cx="111.09888"
     inkscape:cy="448.38271"
     inkscape:window-x="-8"
     inkscape:window-y="-8"
     inkscape:window-maximized="1"
     inkscape:current-layer="Group_5"
     inkscape:snap-grids="false"
     inkscape:snap-page="true" />
  <g
     id="Group_5"
     data-name="Group 5"
     transform="translate(-365.3662,-93.002)">
    <path
       id="Path_33"
       data-name="Path 33"
       d="m 728.2532,265.947 h -4 V 156.402 a 63.4,63.4 0 0 0 -63.4,-63.4 h -232.087 a 63.4,63.4 0 0 0 -63.4,63.4 v 600.974 a 63.4,63.4 0 0 0 63.4,63.4 h 232.086 a 63.4,63.4 0 0 0 63.4,-63.4 V 343.923 h 4 z"
       fill="#3f3d56" />
    <path
       id="Path_34"
       data-name="Path 34"
       d="m 663.4112,109.495 h -30.295 a 22.495,22.495 0 0 1 -20.828,30.994 h -132.959 a 22.495,22.495 0 0 1 -20.827,-30.991 h -28.3 a 47.348,47.348 0 0 0 -47.348,47.348 v 600.089 a 47.348,47.348 0 0 0 47.348,47.348 h 233.2 a 47.348,47.348 0 0 0 47.348,-47.348 v 0 -600.092 a 47.348,47.348 0 0 0 -47.348,-47.348 z"
       fill="#ffffff" />
    <circle
       id="Ellipse_7"
       data-name="Ellipse 7"
       cx="547.20721"
       cy="744.74799"
       fill="#e6e6e6"
       r="26" />
    <g
       id="Group_3"
       data-name="Group 3"
       transform="translate(-274,1353)" />
  </g>
</svg>
